<svg xmlns="http://www.w3.org/2000/svg" viewBox="0 0 32 32" fill="none">
  <rect width="32" height="32" rx="8" fill="#183c2e"/>
  <path d="M8.2 11.2h12.2c.6 0 1.1.5 1 1.1l-.9 10.8c-.1.6-.6 1-1.1 1H9.1c-.6 0-1.1-.5-1.1-1.1L7.2 12.3c-.1-.6.4-1.1 1-1.1Z" fill="#f7f3e9"/>
  <path d="M7.5 11.2h13.5" stroke="#f7f3e9" stroke-linecap="round" stroke-width="1.3"/>
  <path d="M21.8 13.8h1.6a2.1 2.1 0 0 1 0 4.2h-1.6" stroke="#f7f3e9" stroke-linecap="round" stroke-width="1.35"/>
  <path d="M12.2 8.4c.3-.9 1-1.5 1.8-1.5" stroke="#f7f3e9" stroke-linecap="round" stroke-width="1.1" opacity=".55"/>
  <path d="M19.8 8.4c-.3-.9-1-1.5-1.8-1.5" stroke="#f7f3e9" stroke-linecap="round" stroke-width="1.1" opacity=".55"/>
  <path d="M16 3.8c-2.4 1.6-3.6 3.4-3.6 5.6 0 1.4.5 2.5 1.3 3.2" stroke="#ed8d47" stroke-linecap="round" stroke-width="1.35"/>
  <path d="M16 3.8c1.1 1.8 1.6 3.1 1.6 4.4 0 .9-.3 1.7-.8 2.3" stroke="#ed8d47" stroke-linecap="round" stroke-width="1.1"/>
</svg>
